# xmcd
#
# Track frame offsets: 
#        150
#        28484
#        51648
#        69041
#        88567
#        108142
#        118641
#        129899
#        142108
#        159600
#        169920
#        184104
#
# Disc length: 2746 seconds
#
# Revision: 2
# Processed by: cddbd v1.5.1PL0 Copyright (c) Steve Scherf et al.
# Submitted via: ExactAudioCopy v0.95a4
#
DISCID=a60ab80c
DTITLE=Raiz Do Sana - Raiz Do Sana (Chronos)
DYEAR=1999
DGENRE=National Folk
TTITLE0=Pedro Mila
TTITLE1=Ave De Sol
TTITLE2=Verão
TTITLE3=Sem Caô
TTITLE4=Forró Do Jamil
TTITLE5=Peito Do Pombo
TTITLE6=Chamego Zen
TTITLE7=O Beijo
TTITLE8=A Imperatriz E O Poeta
TTITLE9=Catarina
TTITLE10=Pr'ocê
TTITLE11=O Toque
EXTD=Cadastrado por Júlio César(Juazeiro) e Aline Rocha(Petrolina), Fã
EXTD=s do Raiz do Sana.
EXTT0=Música de muito Agito
EXTT1=
EXTT2=
EXTT3=
EXTT4=
EXTT5=
EXTT6=
EXTT7=
EXTT8=
EXTT9=
EXTT10=
EXTT11=
PLAYORDER=
